<?xml version="1.0" encoding="utf-8"?>
<!-- Generator: Adobe Illustrator 17.1.0, SVG Export Plug-In . SVG Version: 6.00 Build 0)  -->
<!DOCTYPE svg PUBLIC "-//W3C//DTD SVG 1.1//EN" "http://www.w3.org/Graphics/SVG/1.1/DTD/svg11.dtd">
<svg version="1.1" id="Layer_1" xmlns="http://www.w3.org/2000/svg" xmlns:xlink="http://www.w3.org/1999/xlink" x="0px" y="0px"
	 viewBox="0 0 612 275.9" enable-background="new 0 0 612 275.9" xml:space="preserve">
<text transform="matrix(1 0 0 1 227.9698 48.4623)" font-family="'MyriadPro-Regular'" font-size="12">WH-Interrogatives</text>
<ellipse fill="#FFFFFF" stroke="#000000" stroke-miterlimit="10" cx="46.6" cy="195.8" rx="25.5" ry="20.5"/>
<text transform="matrix(1.0068 0 0 1 36.3472 193.929)" font-family="'MyriadPro-Regular'" font-size="8.4255">WH-A</text>
<ellipse fill="#FFFFFF" stroke="#000000" stroke-miterlimit="10" cx="107.1" cy="196.8" rx="25.5" ry="20.5"/>
<text transform="matrix(1.0068 0 0 1 96.8472 194.929)" font-family="'MyriadPro-Regular'" font-size="8.4255">WH-U</text>
<ellipse fill="#FFFFFF" stroke="#000000" stroke-miterlimit="10" cx="168.1" cy="196.8" rx="25.5" ry="20.5"/>
<text transform="matrix(1.0068 0 0 1 153.3472 194.929)" font-family="'MyriadPro-Regular'" font-size="8.4255">WH-Pred</text>
<ellipse fill="#FFFFFF" stroke="#000000" stroke-miterlimit="10" cx="226.6" cy="196.3" rx="25.5" ry="20.5"/>
<text transform="matrix(1.0068 0 0 1 211.8472 194.429)"><tspan x="0" y="0" font-family="'MyriadPro-Regular'" font-size="8.4255">WH-LOC/  </tspan><tspan x="0" y="10.1" font-family="'MyriadPro-Regular'" font-size="8.4255">CNFG</tspan></text>
<ellipse fill="#FFFFFF" stroke="#000000" stroke-miterlimit="10" cx="286.1" cy="195.3" rx="25.5" ry="20.5"/>
<text transform="matrix(1.0068 0 0 1 271.3472 193.429)" font-family="'MyriadPro-Regular'" font-size="8.4255">WH-How</text>
<ellipse fill="#FFFFFF" stroke="#000000" stroke-miterlimit="10" cx="343.6" cy="195.3" rx="25.5" ry="20.5"/>
<text transform="matrix(1.0068 0 0 1 325.5032 193.429)" font-family="'MyriadPro-Regular'" font-size="8.4255">WH-Cause</text>
<ellipse fill="#FFFFFF" stroke="#000000" stroke-miterlimit="10" cx="400" cy="192.8" rx="25.5" ry="20.5"/>
<text transform="matrix(1.0068 0 0 1 381.9306 191.0212)" font-family="'MyriadPro-Regular'" font-size="8.4255">WH-TEMP</text>
<ellipse fill="#FFFFFF" stroke="#000000" stroke-miterlimit="10" cx="456.4" cy="190.9" rx="25.5" ry="20.5"/>
<text transform="matrix(1.0068 0 0 1 438.3003 189.1104)" font-family="'MyriadPro-Regular'" font-size="8.4255">WH-QNTY</text>
<g>
	<ellipse fill="#FFFFFF" cx="521.2" cy="189.8" rx="25.5" ry="20.5"/>
	<linearGradient id="SVGID_1_" gradientUnits="userSpaceOnUse" x1="494.6971" y1="189.8419" x2="547.6787" y2="189.8419">
		<stop  offset="0" style="stop-color:#FFFFFF"/>
		<stop  offset="1" style="stop-color:#000000"/>
	</linearGradient>
	
		<ellipse fill="none" stroke="url(#SVGID_1_)" stroke-width="2" stroke-miterlimit="10" stroke-dasharray="12.0769,12.0769" cx="521.2" cy="189.8" rx="25.5" ry="20.5"/>
</g>
<text transform="matrix(1.0068 0 0 1 503.1155 188.0146)"><tspan x="0" y="0" font-family="'MyriadPro-Regular'" font-size="8.4255">WH-(other)</tspan><tspan x="0" y="10.1" font-family="'MyriadPro-Regular'" font-size="8.4255">      (i-n)</tspan></text>
<line fill="none" stroke="#000000" stroke-miterlimit="10" x1="49.9" y1="175.9" x2="267.8" y2="127.2"/>
<line fill="none" stroke="#000000" stroke-miterlimit="10" x1="113" y1="177.4" x2="267.8" y2="127.2"/>
<line fill="none" stroke="#000000" stroke-miterlimit="10" x1="230" y1="174.5" x2="271.1" y2="126.3"/>
<line fill="none" stroke="#000000" stroke-miterlimit="10" x1="286.1" y1="174.7" x2="273.6" y2="125.7"/>
<line fill="none" stroke="#000000" stroke-miterlimit="10" x1="341.3" y1="174.5" x2="274.9" y2="124.8"/>
<line fill="none" stroke="#000000" stroke-miterlimit="10" x1="401.5" y1="171.6" x2="278.8" y2="128.2"/>
<line fill="none" stroke="#000000" stroke-miterlimit="10" x1="453.1" y1="170.2" x2="273.6" y2="125.7"/>
<line fill="none" stroke="#000000" stroke-miterlimit="10" x1="512.8" y1="170.7" x2="273.6" y2="125.7"/>
<line fill="none" stroke="#000000" stroke-miterlimit="10" x1="160.9" y1="177.4" x2="270.2" y2="125.3"/>
<g>
	<ellipse fill="#FFFFFF" stroke="#000000" stroke-miterlimit="10" cx="273.6" cy="96.5" rx="36.1" ry="29.2"/>
	<text transform="matrix(1 0 0 1 264.9409 102.056)" font-family="'MyriadPro-Regular'" font-size="12">WH</text>
</g>
<text transform="matrix(1 0 0 1 53.2725 31.1904)" font-family="'MyriadPro-Regular'" font-size="9">MIX features: Utterance Types:</text>
</svg>
