<?xml version="1.0" encoding="utf-8"?>
<!-- Generator: Adobe Illustrator 17.1.0, SVG Export Plug-In . SVG Version: 6.00 Build 0)  -->
<!DOCTYPE svg PUBLIC "-//W3C//DTD SVG 1.1//EN" "http://www.w3.org/Graphics/SVG/1.1/DTD/svg11.dtd">
<svg version="1.1" id="Layer_1" xmlns="http://www.w3.org/2000/svg" xmlns:xlink="http://www.w3.org/1999/xlink" x="0px" y="0px"
	 viewBox="0 0 390.9 193.5" enable-background="new 0 0 390.9 193.5" xml:space="preserve">
<g>
	<ellipse fill="#FFFFFF" stroke="#000000" stroke-miterlimit="10" cx="146.2" cy="115.5" rx="25.5" ry="20.5"/>
	<text transform="matrix(1.0068 0 0 1 131.6518 116.2116)" font-family="'MyriadPro-Regular'" font-size="8.4255">COP-POT</text>
	<ellipse fill="#FFFFFF" stroke="#000000" stroke-miterlimit="10" cx="205.7" cy="114.5" rx="25.5" ry="20.5"/>
	<text transform="matrix(1.0068 0 0 1 189.1645 115.7735)" font-family="'MyriadPro-Regular'" font-size="8.4255">COP-RLS</text>
	<ellipse fill="#FFFFFF" stroke="#000000" stroke-miterlimit="10" cx="263.2" cy="114.5" rx="25.5" ry="20.5"/>
	<text transform="matrix(1.0068 0 0 1 245.1427 112.6497)"><tspan x="0" y="0" font-family="'MyriadPro-Regular'" font-size="8.4255">COP-LOC/</tspan><tspan x="0" y="10.1" font-family="'MyriadPro-Regular'" font-size="8.4255"> CNFG</tspan></text>
	<line fill="none" stroke="#000000" stroke-miterlimit="10" x1="148.1" y1="95.2" x2="191.4" y2="43.4"/>
	<line fill="none" stroke="#000000" stroke-miterlimit="10" x1="205.7" y1="94" x2="191.4" y2="43.4"/>
	<line fill="none" stroke="#000000" stroke-miterlimit="10" x1="261" y1="93.7" x2="191.4" y2="43.4"/>
	<g>
		<g>
			<line fill="none" stroke="#000000" stroke-miterlimit="10" x1="321.2" y1="90.9" x2="315.5" y2="88.8"/>
			
				<line fill="none" stroke="#000000" stroke-miterlimit="10" stroke-dasharray="11.4734,3.8245" x1="311.9" y1="87.5" x2="198.8" y2="46.1"/>
			<line fill="none" stroke="#000000" stroke-miterlimit="10" x1="197" y1="45.5" x2="191.4" y2="43.4"/>
		</g>
	</g>
	<line fill="none" stroke="#000000" stroke-miterlimit="10" x1="80.6" y1="96.6" x2="191.4" y2="43.5"/>
	<text transform="matrix(1 0 0 1 171.3585 38.8526)" font-family="'MyriadPro-Regular'" font-size="12">Copula</text>
	<ellipse fill="#FFFFFF" stroke="#000000" stroke-miterlimit="10" cx="82.5" cy="115" rx="25.5" ry="20.5"/>
	<text transform="matrix(1.0068 0 0 1 60.6129 115.191)" font-family="'MyriadPro-Regular'" font-size="8.4255">COP-ATTRIB</text>
	<g>
		<ellipse fill="#FFFFFF" cx="325.5" cy="112.1" rx="25.5" ry="20.5"/>
		
			<ellipse fill="none" stroke="#000000" stroke-miterlimit="10" stroke-dasharray="12.0769,4.0256" cx="325.5" cy="112.1" rx="25.5" ry="20.5"/>
	</g>
	<text transform="matrix(1.0068 0 0 1 307.4343 110.2622)"><tspan x="0" y="0" font-family="'MyriadPro-Regular'" font-size="8.4255">COP-(other)</tspan><tspan x="0" y="10.1" font-family="'MyriadPro-Regular'" font-size="8.4255">(i-n)</tspan></text>
</g>
<text transform="matrix(1 0 0 1 32.2974 26.7545)" font-family="'MyriadPro-Regular'" font-size="10">MIX Lexical Features: </text>
</svg>
