<?xml version="1.0" encoding="utf-8"?>
<!-- Generator: Adobe Illustrator 17.1.0, SVG Export Plug-In . SVG Version: 6.00 Build 0)  -->
<!DOCTYPE svg PUBLIC "-//W3C//DTD SVG 1.1//EN" "http://www.w3.org/Graphics/SVG/1.1/DTD/svg11.dtd">
<svg version="1.1" id="Layer_1" xmlns="http://www.w3.org/2000/svg" xmlns:xlink="http://www.w3.org/1999/xlink" x="0px" y="0px"
	 viewBox="0 0 357.5 290.2" enable-background="new 0 0 357.5 290.2" xml:space="preserve">
<ellipse fill="#FFFFFF" stroke="#000000" stroke-miterlimit="10" cx="118.5" cy="121.9" rx="25.5" ry="20.5"/>
<text transform="matrix(1.0068 0 0 1 108.5869 123.6207)" font-family="'MyriadPro-Regular'" font-size="11">Y-N</text>
<ellipse fill="#FFFFFF" stroke="#000000" stroke-miterlimit="10" cx="178" cy="120.9" rx="25.5" ry="20.5"/>
<text transform="matrix(1.0068 0 0 1 167.0995 124.5159)" font-family="'MyriadPro-Regular'" font-size="11">WH</text>
<g>
	
		<ellipse fill="none" stroke="#000000" stroke-miterlimit="10" stroke-dasharray="12.0769,4.0256" cx="235.5" cy="120.9" rx="25.5" ry="20.5"/>
</g>
<text transform="matrix(1.0068 0 0 1 228.7445 117.3921)"><tspan x="0" y="0" font-family="'MyriadPro-Regular'" font-size="8.4255">other</tspan><tspan x="0" y="10.1" font-family="'MyriadPro-Regular'" font-size="8.4255">(i-n)</tspan></text>
<line fill="none" stroke="#000000" stroke-miterlimit="10" x1="118.5" y1="101.4" x2="175.6" y2="49.8"/>
<line fill="none" stroke="#000000" stroke-miterlimit="10" x1="176" y1="99.5" x2="175.6" y2="49.8"/>
<g>
	<g>
		<line fill="none" stroke="#000000" stroke-miterlimit="10" x1="235.3" y1="98.8" x2="230.7" y2="95"/>
		
			<line fill="none" stroke="#000000" stroke-miterlimit="10" stroke-dasharray="11.5146,3.8382" x1="227.7" y1="92.6" x2="181.7" y2="54.8"/>
		<line fill="none" stroke="#000000" stroke-miterlimit="10" x1="180.3" y1="53.6" x2="175.6" y2="49.8"/>
	</g>
</g>
<text transform="matrix(1 0 0 1 122.9603 46.595)" font-family="'MyriadPro-Regular'" font-size="12">Interrogatives (aka: Q)</text>
<text transform="matrix(1 0 0 1 16.5658 33.1636)" font-family="'MyriadPro-Regular'" font-size="10">MIX Utterance Types:</text>
<ellipse fill="none" cx="208" cy="198.9" rx="17.8" ry="14.4"/>
<text transform="matrix(1 0 0 1 191.4805 197.894)" opacity="0.58"><tspan x="0" y="0" font-family="'MyriadPro-Regular'" font-size="7">WH-types</tspan><tspan x="2.2" y="9.6" font-family="'MyriadPro-Regular'" font-size="8">   (i-n)</tspan></text>
<g opacity="0.46">
	<ellipse fill="#FFFFFF" cx="270.3" cy="198.5" rx="17.8" ry="14.4"/>
	
		<ellipse fill="none" stroke="#000000" stroke-miterlimit="10" stroke-dasharray="12.6807,4.2269" cx="270.3" cy="198.5" rx="17.8" ry="14.4"/>
</g>
<line opacity="0.43" fill="none" stroke="#000000" stroke-miterlimit="10" x1="147.4" y1="185.2" x2="116" y2="142.3"/>
<ellipse opacity="0.54" fill="none" stroke="#000000" stroke-miterlimit="10" cx="204.4" cy="198.5" rx="17.8" ry="14.4"/>
<ellipse fill="none" cx="151.6" cy="198.6" rx="17.8" ry="14.4"/>
<text transform="matrix(1 0 0 1 135.799 195.7014)" opacity="0.52"><tspan x="0" y="0" font-family="'MyriadPro-Regular'" font-size="6">Q-YN-types</tspan><tspan x="-1.3" y="7.2" font-family="'MyriadPro-Regular'" font-size="6">       (i-n)</tspan></text>
<ellipse opacity="0.54" fill="none" stroke="#000000" stroke-miterlimit="10" cx="148" cy="198.9" rx="17.8" ry="14.4"/>
<ellipse fill="none" cx="228.3" cy="240.4" rx="17.8" ry="14.4"/>
<text transform="matrix(1 0 0 1 212.4604 237.0567)"><tspan x="0" y="0" font-family="'MyriadPro-Regular'" font-size="5">RESP </tspan><tspan x="-1.7" y="6" font-family="'MyriadPro-Regular'" font-size="5">(WH-types</tspan><tspan x="2.8" y="13.2" font-family="'MyriadPro-Regular'" font-size="6">(i-n))</tspan></text>
<ellipse opacity="0.54" fill="#FFFFFF" stroke="#000000" stroke-miterlimit="10" cx="226.2" cy="239.6" rx="17.8" ry="14.4"/>
<ellipse fill="none" cx="174.7" cy="238.9" rx="17.8" ry="14.4"/>
<text transform="matrix(1 0 0 1 158.8522 235.526)"><tspan x="0" y="0" font-family="'MyriadPro-Regular'" font-size="5">     RESP </tspan><tspan x="-1.7" y="6" font-family="'MyriadPro-Regular'" font-size="5">(Q-YN-types</tspan><tspan x="2.8" y="13.2" font-family="'MyriadPro-Regular'" font-size="6">  (i-n))</tspan></text>
<ellipse opacity="0.54" fill="#FFFFFF" stroke="#000000" stroke-miterlimit="10" cx="169.9" cy="241.1" rx="17.8" ry="14.4"/>
<g>
	<line opacity="0.43" fill="none" stroke="#000000" stroke-miterlimit="10" x1="208" y1="184.5" x2="176.6" y2="141.6"/>
	<line opacity="0.43" fill="none" stroke="#000000" stroke-miterlimit="10" x1="202.2" y1="184.5" x2="176.1" y2="140.4"/>
</g>
<g>
	<line opacity="0.43" fill="none" stroke="#000000" stroke-miterlimit="10" x1="197.6" y1="187.9" x2="175.9" y2="141.8"/>
	<line opacity="0.43" fill="none" stroke="#000000" stroke-miterlimit="10" x1="193.6" y1="187.9" x2="175.6" y2="140.5"/>
</g>
<g>
	<line opacity="0.43" fill="none" stroke="#000000" stroke-miterlimit="10" x1="149.4" y1="186.3" x2="117.9" y2="145.4"/>
	<line opacity="0.43" fill="none" stroke="#000000" stroke-miterlimit="10" x1="143.5" y1="186.3" x2="117.5" y2="144.2"/>
</g>
<g>
	<line opacity="0.43" fill="none" stroke="#000000" stroke-miterlimit="10" x1="138.4" y1="186.8" x2="117" y2="144.3"/>
	<line opacity="0.43" fill="none" stroke="#000000" stroke-miterlimit="10" x1="134.4" y1="186.8" x2="116.7" y2="143.1"/>
</g>
<g>
	<line opacity="0.43" fill="none" stroke="#000000" stroke-miterlimit="10" x1="227.3" y1="225.6" x2="208.1" y2="212.5"/>
	<line opacity="0.43" fill="none" stroke="#000000" stroke-miterlimit="10" x1="223.8" y1="225.6" x2="207.9" y2="212.1"/>
</g>
<g>
	<line opacity="0.43" fill="none" stroke="#000000" stroke-miterlimit="10" x1="221" y1="226.6" x2="207.7" y2="212.5"/>
	<line opacity="0.43" fill="none" stroke="#000000" stroke-miterlimit="10" x1="218.5" y1="226.6" x2="207.5" y2="212.1"/>
</g>
<g>
	<line opacity="0.43" fill="none" stroke="#000000" stroke-miterlimit="10" x1="171.7" y1="227.1" x2="152.5" y2="214"/>
	<line opacity="0.43" fill="none" stroke="#000000" stroke-miterlimit="10" x1="168.1" y1="227.1" x2="152.2" y2="213.6"/>
</g>
<g>
	<line opacity="0.43" fill="none" stroke="#000000" stroke-miterlimit="10" x1="165.4" y1="228.1" x2="152.1" y2="214"/>
	<line opacity="0.43" fill="none" stroke="#000000" stroke-miterlimit="10" x1="162.9" y1="228.1" x2="151.9" y2="213.6"/>
</g>
<g opacity="0.52">
	<g opacity="0.43">
		<g>
			<line fill="none" stroke="#000000" stroke-miterlimit="10" x1="268.5" y1="185.3" x2="265" y2="180.5"/>
			
				<line fill="none" stroke="#000000" stroke-miterlimit="10" stroke-dasharray="11.7701,5.8851" x1="261.5" y1="175.8" x2="242.4" y2="149.6"/>
			<line fill="none" stroke="#000000" stroke-miterlimit="10" x1="240.7" y1="147.3" x2="237.1" y2="142.4"/>
		</g>
	</g>
	<g opacity="0.43">
		<g>
			<line fill="none" stroke="#000000" stroke-miterlimit="10" x1="262.7" y1="185.3" x2="259.7" y2="180.2"/>
			
				<line fill="none" stroke="#000000" stroke-miterlimit="10" stroke-dasharray="11.2106,5.6053" x1="256.8" y1="175.4" x2="241.2" y2="148.8"/>
			<line fill="none" stroke="#000000" stroke-miterlimit="10" x1="239.7" y1="146.4" x2="236.7" y2="141.2"/>
		</g>
	</g>
</g>
<g opacity="0.52">
	<g opacity="0.43">
		<g>
			<line fill="none" stroke="#000000" stroke-miterlimit="10" x1="258.2" y1="188.7" x2="255.6" y2="183.3"/>
			
				<line fill="none" stroke="#000000" stroke-miterlimit="10" stroke-dasharray="11.1289,5.5644" x1="253.3" y1="178.3" x2="240.2" y2="150.6"/>
			<line fill="none" stroke="#000000" stroke-miterlimit="10" x1="239" y1="148.1" x2="236.5" y2="142.6"/>
		</g>
	</g>
	<g opacity="0.43">
		<g>
			<line fill="none" stroke="#000000" stroke-miterlimit="10" x1="254.2" y1="188.7" x2="252" y2="183.1"/>
			
				<line fill="none" stroke="#000000" stroke-miterlimit="10" stroke-dasharray="11.0534,5.5267" x1="250.1" y1="177.9" x2="239.3" y2="149.5"/>
			<line fill="none" stroke="#000000" stroke-miterlimit="10" x1="238.3" y1="146.9" x2="236.2" y2="141.3"/>
		</g>
	</g>
</g>
<ellipse fill="none" cx="271.3" cy="198.3" rx="17.8" ry="14.4"/>
<text transform="matrix(1 0 0 1 255.5565 195.3983)" opacity="0.5"><tspan x="0" y="0" font-family="'MyriadPro-Regular'" font-size="6">other </tspan><tspan x="-1.3" y="7.2" font-family="'MyriadPro-Regular'" font-size="6">Q-types </tspan><tspan x="5.1" y="14.4" font-family="'MyriadPro-Regular'" font-size="6">     (i-n)</tspan></text>
<ellipse fill="none" cx="289.1" cy="238.6" rx="16.4" ry="12.8"/>
<text transform="matrix(1.0359 0 0 1 274.4932 235.5552)"><tspan x="0" y="0" font-family="'MyriadPro-Regular'" font-size="4.4447">RESP </tspan><tspan x="-1.5" y="5.3" font-family="'MyriadPro-Regular'" font-size="4.4447">(other-types</tspan><tspan x="2.5" y="11.7" font-family="'MyriadPro-Regular'" font-size="5.3336">(i-n))</tspan></text>
<g opacity="0.54">
	<ellipse fill="#FFFFFF" cx="284" cy="238.5" rx="16.4" ry="12.8"/>
	
		<ellipse fill="none" stroke="#000000" stroke-miterlimit="10" stroke-dasharray="12.2756,6.1378" cx="284" cy="238.5" rx="16.4" ry="12.8"/>
</g>
<g>
	<g opacity="0.43">
		<g>
			<line fill="none" stroke="#000000" stroke-miterlimit="10" x1="288.2" y1="225.4" x2="283.2" y2="222.1"/>
			<line fill="none" stroke="#000000" stroke-miterlimit="10" x1="275.5" y1="217" x2="270.5" y2="213.7"/>
		</g>
	</g>
	<g opacity="0.43">
		<g>
			<line fill="none" stroke="#000000" stroke-miterlimit="10" x1="284.9" y1="225.4" x2="280.3" y2="221.6"/>
			<line fill="none" stroke="#000000" stroke-miterlimit="10" x1="274.9" y1="217.2" x2="270.2" y2="213.4"/>
		</g>
	</g>
</g>
<g opacity="0.53">
	<g opacity="0.43">
		<g>
			<line fill="none" stroke="#000000" stroke-miterlimit="10" x1="282.4" y1="226.3" x2="278.2" y2="222"/>
			<line fill="none" stroke="#000000" stroke-miterlimit="10" x1="274.3" y1="218" x2="270.1" y2="213.8"/>
		</g>
	</g>
	<g opacity="0.43">
		<g>
			<line fill="none" stroke="#000000" stroke-miterlimit="10" x1="280.1" y1="226.3" x2="276.4" y2="221.6"/>
			<line fill="none" stroke="#000000" stroke-miterlimit="10" x1="273.7" y1="218.1" x2="270" y2="213.4"/>
		</g>
	</g>
</g>
</svg>
